<svg viewBox="0 0 120 120" xmlns="http://www.w3.org/2000/svg" xmlns:xlink="http://www.w3.org/1999/xlink" width="120.000000" height="120.000000" fill="none">
	<rect id="vscode-icons:file-type-html" width="120.000000" height="120.000000" x="0.000000" y="0.000000" fill="rgb(255,255,255)" fill-opacity="0" />
	<g id="Group 9">
		<path id="Vector" d="M22.1325 102.004L13.7063 7.5L106.294 7.5L97.8563 101.989L59.9438 112.5L22.1325 102.004Z" fill="rgb(228,79,38)" fill-rule="nonzero" />
		<path id="Vector" d="M60 104.468L90.6375 95.9738L97.845 15.2288L60 15.2288L60 104.468Z" fill="rgb(241,102,42)" fill-rule="nonzero" />
		<path id="Vector" d="M60 50.2762L44.6625 50.2762L43.605 38.4074L60 38.4074L60 26.8162L30.9375 26.8162L31.215 29.9287L34.0612 61.8674L60 61.8674L60 50.2762ZM60 80.3774L59.9475 80.3924L47.04 76.9087L46.215 67.6649L34.5788 67.6649L36.2025 85.8599L59.9475 92.4524L60 92.4374L60 80.3774Z" fill="rgb(235,235,235)" fill-rule="nonzero" />
		<path id="Vector" d="M59.9587 50.2762L59.9587 61.8674L74.2312 61.8674L72.8887 76.9012L59.9587 80.3887L59.9587 92.4487L83.7225 85.8599L83.895 83.9024L86.6175 53.3887L86.9025 50.2762L59.9587 50.2762ZM59.9587 26.8162L59.9587 38.4074L87.9562 38.4074L88.1887 35.8049L88.7175 29.9287L88.995 26.8162L59.9587 26.8162Z" fill="rgb(255,255,255)" fill-rule="nonzero" />
	</g>
</svg>
