<svg viewBox="0 0 33 33" xmlns="http://www.w3.org/2000/svg" xmlns:xlink="http://www.w3.org/1999/xlink" width="33.000000" height="33.000000" fill="none" customFrame="#000000">
	<defs>
		<linearGradient id="paint_linear_3" x1="1.92542648" x2="12.3300524" y1="1.73491287" y2="41.9812355" gradientUnits="userSpaceOnUse">
			<stop stop-color="rgb(78.0804,95.5966,210.551)" offset="0" stop-opacity="1" />
			<stop stop-color="rgb(145,59,175)" offset="0.142763212" stop-opacity="1" />
			<stop stop-color="rgb(213,45,136)" offset="0.76145798" stop-opacity="1" />
			<stop stop-color="rgb(242,109,79)" offset="1" stop-opacity="1" />
		</linearGradient>
		<radialGradient id="paint_radial_1" cx="0" cy="0" r="1" gradientUnits="userSpaceOnUse" gradientTransform="matrix(11.8063,-18.7771,26.0913,16.4052,9.99053,33)">
			<stop stop-color="rgb(254,210,118)" offset="0" stop-opacity="1" />
			<stop stop-color="rgb(253,189,97)" offset="0.170240045" stop-opacity="0.975005686" />
			<stop stop-color="rgb(246,128,77)" offset="0.454081267" stop-opacity="1" />
			<stop stop-color="rgb(232,61,92)" offset="1" stop-opacity="9.99999975e-05" />
		</radialGradient>
	</defs>
	<path id="Symbol" d="M9.69707 0.0992932C11.457 0.0189941 12.0189 0 16.5 0C20.9811 0 21.543 0.0189941 23.3029 0.0992932C25.0592 0.179396 26.2586 0.458347 27.3081 0.866261C28.3931 1.28786 29.3133 1.85205 30.2307 2.76934C31.1479 3.68669 31.7121 4.60685 32.1338 5.69187C32.5417 6.74139 32.8206 7.94084 32.9007 9.69707C32.981 11.457 33 12.0189 33 16.5C33 20.9811 32.981 21.543 32.9007 23.3029C32.8206 25.0592 32.5417 26.2586 32.1338 27.3081C31.7121 28.3931 31.1479 29.3133 30.2307 30.2307C29.3133 31.1479 28.3931 31.7121 27.3081 32.1338C26.2586 32.5417 25.0592 32.8206 23.3029 32.9007C21.543 32.981 20.9811 33 16.5 33C12.0189 33 11.457 32.981 9.69707 32.9007C7.94084 32.8206 6.74139 32.5417 5.69187 32.1338C4.60685 31.7121 3.68669 31.1479 2.76934 30.2307C1.85205 29.3133 1.28786 28.3931 0.866261 27.3081C0.458347 26.2586 0.179396 25.0592 0.0992932 23.3029C0.0189941 21.543 0 20.9811 0 16.5C0 12.0189 0.0189941 11.457 0.0992932 9.69707C0.179396 7.94084 0.458347 6.74139 0.866261 5.69187C1.28786 4.60685 1.85205 3.68669 2.76934 2.76934C3.68669 1.85205 4.60685 1.28786 5.69187 0.866261C6.74139 0.458347 7.94084 0.179396 9.69707 0.0992932ZM23.1674 3.06918C21.4276 2.9898 20.9057 2.97297 16.5 2.97297C12.0943 2.97297 11.5724 2.9898 9.83259 3.06918C8.22385 3.14254 7.35019 3.41134 6.76878 3.6373C5.9986 3.93662 5.44895 4.29417 4.87159 4.87159C4.29417 5.44895 3.93663 5.99859 3.63731 6.76877C3.41134 7.35019 3.14254 8.22385 3.06919 9.83258C2.9898 11.5724 2.97297 12.0943 2.97297 16.5C2.97297 20.9057 2.9898 21.4276 3.06919 23.1674C3.14254 24.7761 3.41134 25.6498 3.63731 26.2312C3.93663 27.0014 4.29424 27.5511 4.87159 28.1284C5.44895 28.7058 5.9986 29.0634 6.76878 29.3627C7.35019 29.5887 8.22385 29.8575 9.83259 29.9308C11.5723 30.0102 12.094 30.027 16.5 30.027C20.906 30.027 21.4278 30.0102 23.1674 29.9308C24.7762 29.8575 25.6498 29.5887 26.2312 29.3627C27.0014 29.0634 27.5511 28.7058 28.1284 28.1284C28.7058 27.5511 29.0634 27.0014 29.3627 26.2312C29.5887 25.6498 29.8575 24.7761 29.9308 23.1674C30.0102 21.4276 30.027 20.9057 30.027 16.5C30.027 12.0943 30.0102 11.5724 29.9308 9.83258C29.8575 8.22385 29.5887 7.35019 29.3627 6.76877C29.0634 5.99859 28.7058 5.44895 28.1284 4.87159C27.5511 4.29417 27.0014 3.93662 26.2312 3.6373C25.6498 3.41134 24.7762 3.14254 23.1674 3.06918ZM25.3077 9.67225C26.4013 9.67225 27.2878 8.78581 27.2878 7.69228C27.2878 6.59874 26.4013 5.71224 25.3077 5.71224C24.2143 5.71224 23.3278 6.59874 23.3278 7.69228C23.3278 8.78581 24.2143 9.67225 25.3077 9.67225ZM16.5 8.02703C11.8205 8.02703 8.02703 11.8205 8.02703 16.5C8.02703 21.1795 11.8205 24.973 16.5 24.973C21.1795 24.973 24.973 21.1795 24.973 16.5C24.973 11.8205 21.1795 8.02703 16.5 8.02703ZM11 16.5C11 19.5376 13.4624 22 16.5 22C19.5376 22 22 19.5376 22 16.5C22 13.4624 19.5376 11 16.5 11C13.4624 11 11 13.4624 11 16.5Z" fill="url(#paint_linear_3)" fill-rule="evenodd" />
	<path id="Symbol" d="M9.69707 0.0992932C11.457 0.0189941 12.0189 0 16.5 0C20.9811 0 21.543 0.0189941 23.3029 0.0992932C25.0592 0.179396 26.2586 0.458347 27.3081 0.866261C28.3931 1.28786 29.3133 1.85205 30.2307 2.76934C31.1479 3.68669 31.7121 4.60685 32.1338 5.69187C32.5417 6.74139 32.8206 7.94084 32.9007 9.69707C32.981 11.457 33 12.0189 33 16.5C33 20.9811 32.981 21.543 32.9007 23.3029C32.8206 25.0592 32.5417 26.2586 32.1338 27.3081C31.7121 28.3931 31.1479 29.3133 30.2307 30.2307C29.3133 31.1479 28.3931 31.7121 27.3081 32.1338C26.2586 32.5417 25.0592 32.8206 23.3029 32.9007C21.543 32.981 20.9811 33 16.5 33C12.0189 33 11.457 32.981 9.69707 32.9007C7.94084 32.8206 6.74139 32.5417 5.69187 32.1338C4.60685 31.7121 3.68669 31.1479 2.76934 30.2307C1.85205 29.3133 1.28786 28.3931 0.866261 27.3081C0.458347 26.2586 0.179396 25.0592 0.0992932 23.3029C0.0189941 21.543 0 20.9811 0 16.5C0 12.0189 0.0189941 11.457 0.0992932 9.69707C0.179396 7.94084 0.458347 6.74139 0.866261 5.69187C1.28786 4.60685 1.85205 3.68669 2.76934 2.76934C3.68669 1.85205 4.60685 1.28786 5.69187 0.866261C6.74139 0.458347 7.94084 0.179396 9.69707 0.0992932ZM23.1674 3.06918C21.4276 2.9898 20.9057 2.97297 16.5 2.97297C12.0943 2.97297 11.5724 2.9898 9.83259 3.06918C8.22385 3.14254 7.35019 3.41134 6.76878 3.6373C5.9986 3.93662 5.44895 4.29417 4.87159 4.87159C4.29417 5.44895 3.93663 5.99859 3.63731 6.76877C3.41134 7.35019 3.14254 8.22385 3.06919 9.83258C2.9898 11.5724 2.97297 12.0943 2.97297 16.5C2.97297 20.9057 2.9898 21.4276 3.06919 23.1674C3.14254 24.7761 3.41134 25.6498 3.63731 26.2312C3.93663 27.0014 4.29424 27.5511 4.87159 28.1284C5.44895 28.7058 5.9986 29.0634 6.76878 29.3627C7.35019 29.5887 8.22385 29.8575 9.83259 29.9308C11.5723 30.0102 12.094 30.027 16.5 30.027C20.906 30.027 21.4278 30.0102 23.1674 29.9308C24.7762 29.8575 25.6498 29.5887 26.2312 29.3627C27.0014 29.0634 27.5511 28.7058 28.1284 28.1284C28.7058 27.5511 29.0634 27.0014 29.3627 26.2312C29.5887 25.6498 29.8575 24.7761 29.9308 23.1674C30.0102 21.4276 30.027 20.9057 30.027 16.5C30.027 12.0943 30.0102 11.5724 29.9308 9.83258C29.8575 8.22385 29.5887 7.35019 29.3627 6.76877C29.0634 5.99859 28.7058 5.44895 28.1284 4.87159C27.5511 4.29417 27.0014 3.93662 26.2312 3.6373C25.6498 3.41134 24.7762 3.14254 23.1674 3.06918ZM25.3077 9.67225C26.4013 9.67225 27.2878 8.78581 27.2878 7.69228C27.2878 6.59874 26.4013 5.71224 25.3077 5.71224C24.2143 5.71224 23.3278 6.59874 23.3278 7.69228C23.3278 8.78581 24.2143 9.67225 25.3077 9.67225ZM16.5 8.02703C11.8205 8.02703 8.02703 11.8205 8.02703 16.5C8.02703 21.1795 11.8205 24.973 16.5 24.973C21.1795 24.973 24.973 21.1795 24.973 16.5C24.973 11.8205 21.1795 8.02703 16.5 8.02703ZM11 16.5C11 19.5376 13.4624 22 16.5 22C19.5376 22 22 19.5376 22 16.5C22 13.4624 19.5376 11 16.5 11C13.4624 11 11 13.4624 11 16.5Z" fill="url(#paint_radial_1)" fill-rule="evenodd" />
</svg>
