<svg viewBox="0 0 17.9061 14.8393" xmlns="http://www.w3.org/2000/svg" xmlns:xlink="http://www.w3.org/1999/xlink" width="17.906128" height="14.839325" fill="none" customFrame="#000000">
	<path id="Path-3" d="M1.23095 6.38818C6.03758 4.294 9.24276 2.9134 10.8465 2.24636C15.4254 0.341818 16.3769 0.0109799 16.997 5.54443e-05C17.1334 -0.00234727 17.4384 0.0314557 17.6359 0.191752C17.8027 0.327104 17.8486 0.509944 17.8706 0.638272C17.8926 0.7666 17.9199 1.05893 17.8982 1.28736C17.65 3.89452 16.5764 10.2214 16.0301 13.1415C15.799 14.3771 15.3439 14.7914 14.9033 14.8319C13.9458 14.92 13.2188 14.1991 12.2914 13.5912C10.8402 12.64 10.0204 12.0478 8.61176 11.1195C6.98387 10.0468 8.03916 9.45718 8.9669 8.4936C9.20969 8.24142 13.4284 4.40414 13.5101 4.05604C13.5203 4.0125 13.5298 3.85022 13.4334 3.76453C13.337 3.67884 13.1947 3.70814 13.092 3.73144C12.9465 3.76448 10.6282 5.29677 6.1372 8.32831C5.47917 8.78016 4.88315 9.00032 4.34913 8.98878C3.76042 8.97607 2.62797 8.65592 1.78612 8.38226C0.753544 8.04661 -0.0671238 7.86916 0.00433793 7.29912C0.0415596 7.00221 0.450431 6.69856 1.23095 6.38818Z" fill="rgb(255,255,255)" fill-rule="evenodd" />
</svg>
